<mxfile host="Electron" agent="Mozilla/5.0 (Windows NT 10.0; Win64; x64) AppleWebKit/537.36 (KHTML, like Gecko) draw.io/24.7.5 Chrome/126.0.6478.183 Electron/31.3.0 Safari/537.36" version="24.7.5">
  <diagram name="第 1 页" id="gury7rbELpRNrHF25RUA">
    <mxGraphModel dx="2589" dy="888" grid="1" gridSize="10" guides="1" tooltips="1" connect="1" arrows="1" fold="1" page="1" pageScale="1" pageWidth="827" pageHeight="1169" math="0" shadow="0">
      <root>
        <mxCell id="0" />
        <mxCell id="1" parent="0" />
        <mxCell id="sNuJCHXWsmG99wDu6apj-1" value="網頁介面顯示系統" style="rounded=1;whiteSpace=wrap;html=1;" parent="1" vertex="1">
          <mxGeometry x="240" y="710" width="120" height="60" as="geometry" />
        </mxCell>
        <mxCell id="leHano-L6tnwc11Wwh_X-2" style="edgeStyle=orthogonalEdgeStyle;rounded=0;orthogonalLoop=1;jettySize=auto;html=1;" edge="1" parent="1" source="sNuJCHXWsmG99wDu6apj-2" target="sNuJCHXWsmG99wDu6apj-8">
          <mxGeometry relative="1" as="geometry" />
        </mxCell>
        <mxCell id="sNuJCHXWsmG99wDu6apj-2" value="雲端資料更新模組&lt;div&gt;Firebase API&lt;br&gt;&lt;/div&gt;" style="rounded=1;whiteSpace=wrap;html=1;" parent="1" vertex="1">
          <mxGeometry x="240" y="850" width="120" height="60" as="geometry" />
        </mxCell>
        <mxCell id="sNuJCHXWsmG99wDu6apj-32" style="edgeStyle=orthogonalEdgeStyle;rounded=0;orthogonalLoop=1;jettySize=auto;html=1;entryX=0;entryY=0.5;entryDx=0;entryDy=0;" parent="1" source="sNuJCHXWsmG99wDu6apj-7" target="sNuJCHXWsmG99wDu6apj-10" edge="1">
          <mxGeometry relative="1" as="geometry" />
        </mxCell>
        <mxCell id="sNuJCHXWsmG99wDu6apj-7" value="取得API登入Firebase&amp;nbsp;&lt;div&gt;取得idToken&lt;/div&gt;&lt;div&gt;(RestAPI寫入所需)&lt;/div&gt;" style="rounded=1;whiteSpace=wrap;html=1;" parent="1" vertex="1">
          <mxGeometry x="294" y="1210" width="120" height="60" as="geometry" />
        </mxCell>
        <mxCell id="sNuJCHXWsmG99wDu6apj-8" value="雲端資料讀取介面" style="rounded=1;whiteSpace=wrap;html=1;" parent="1" vertex="1">
          <mxGeometry x="490" y="850" width="120" height="60" as="geometry" />
        </mxCell>
        <mxCell id="sNuJCHXWsmG99wDu6apj-9" value="在遠端資料庫新增新的參數或資料" style="rounded=1;whiteSpace=wrap;html=1;" parent="1" vertex="1">
          <mxGeometry x="660" y="1560" width="120" height="60" as="geometry" />
        </mxCell>
        <mxCell id="sNuJCHXWsmG99wDu6apj-34" style="edgeStyle=orthogonalEdgeStyle;rounded=0;orthogonalLoop=1;jettySize=auto;html=1;exitX=0.5;exitY=1;exitDx=0;exitDy=0;" parent="1" source="sNuJCHXWsmG99wDu6apj-10" target="sNuJCHXWsmG99wDu6apj-33" edge="1">
          <mxGeometry relative="1" as="geometry" />
        </mxCell>
        <mxCell id="sNuJCHXWsmG99wDu6apj-10" value="requests.put更新雲端資料庫" style="rounded=1;whiteSpace=wrap;html=1;" parent="1" vertex="1">
          <mxGeometry x="490" y="1210" width="120" height="60" as="geometry" />
        </mxCell>
        <mxCell id="leHano-L6tnwc11Wwh_X-1" style="edgeStyle=orthogonalEdgeStyle;rounded=0;orthogonalLoop=1;jettySize=auto;html=1;" edge="1" parent="1" source="sNuJCHXWsmG99wDu6apj-14" target="sNuJCHXWsmG99wDu6apj-2">
          <mxGeometry relative="1" as="geometry" />
        </mxCell>
        <mxCell id="sNuJCHXWsmG99wDu6apj-14" value="觸發資料更新模組" style="rounded=1;whiteSpace=wrap;html=1;" parent="1" vertex="1">
          <mxGeometry y="850" width="120" height="60" as="geometry" />
        </mxCell>
        <mxCell id="leHano-L6tnwc11Wwh_X-4" style="edgeStyle=orthogonalEdgeStyle;rounded=0;orthogonalLoop=1;jettySize=auto;html=1;entryX=0.5;entryY=0;entryDx=0;entryDy=0;" edge="1" parent="1" source="sNuJCHXWsmG99wDu6apj-15" target="sNuJCHXWsmG99wDu6apj-17">
          <mxGeometry relative="1" as="geometry">
            <Array as="points">
              <mxPoint x="60" y="1180" />
              <mxPoint x="-110" y="1180" />
            </Array>
          </mxGeometry>
        </mxCell>
        <mxCell id="leHano-L6tnwc11Wwh_X-5" style="edgeStyle=orthogonalEdgeStyle;rounded=0;orthogonalLoop=1;jettySize=auto;html=1;entryX=0;entryY=0.5;entryDx=0;entryDy=0;" edge="1" parent="1" source="sNuJCHXWsmG99wDu6apj-15" target="sNuJCHXWsmG99wDu6apj-27">
          <mxGeometry relative="1" as="geometry" />
        </mxCell>
        <mxCell id="sNuJCHXWsmG99wDu6apj-15" value="Server取得水表資訊和裝置名稱" style="rounded=1;whiteSpace=wrap;html=1;" parent="1" vertex="1">
          <mxGeometry y="1090" width="120" height="60" as="geometry" />
        </mxCell>
        <mxCell id="sNuJCHXWsmG99wDu6apj-22" style="edgeStyle=orthogonalEdgeStyle;rounded=0;orthogonalLoop=1;jettySize=auto;html=1;entryX=0;entryY=0.5;entryDx=0;entryDy=0;" parent="1" source="sNuJCHXWsmG99wDu6apj-16" target="sNuJCHXWsmG99wDu6apj-7" edge="1">
          <mxGeometry relative="1" as="geometry" />
        </mxCell>
        <mxCell id="sNuJCHXWsmG99wDu6apj-16" value="建立登入用Custom Token" style="rounded=1;whiteSpace=wrap;html=1;" parent="1" vertex="1">
          <mxGeometry x="120" y="1210" width="120" height="60" as="geometry" />
        </mxCell>
        <mxCell id="sNuJCHXWsmG99wDu6apj-21" value="Yes" style="edgeStyle=orthogonalEdgeStyle;rounded=0;orthogonalLoop=1;jettySize=auto;html=1;entryX=0;entryY=0.5;entryDx=0;entryDy=0;" parent="1" source="sNuJCHXWsmG99wDu6apj-17" target="sNuJCHXWsmG99wDu6apj-16" edge="1">
          <mxGeometry relative="1" as="geometry">
            <mxPoint x="100" y="1250.0000000000002" as="targetPoint" />
          </mxGeometry>
        </mxCell>
        <mxCell id="sNuJCHXWsmG99wDu6apj-25" value="No" style="edgeStyle=orthogonalEdgeStyle;rounded=0;orthogonalLoop=1;jettySize=auto;html=1;exitX=0.5;exitY=1;exitDx=0;exitDy=0;entryX=0.5;entryY=0;entryDx=0;entryDy=0;" parent="1" source="sNuJCHXWsmG99wDu6apj-17" target="sNuJCHXWsmG99wDu6apj-19" edge="1">
          <mxGeometry relative="1" as="geometry" />
        </mxCell>
        <mxCell id="sNuJCHXWsmG99wDu6apj-17" value="&lt;meta charset=&quot;utf-8&quot;&gt;&lt;span style=&quot;color: rgb(0, 0, 0); font-family: Helvetica; font-size: 12px; font-style: normal; font-variant-ligatures: normal; font-variant-caps: normal; font-weight: 400; letter-spacing: normal; orphans: 2; text-align: center; text-indent: 0px; text-transform: none; widows: 2; word-spacing: 0px; -webkit-text-stroke-width: 0px; white-space: normal; background-color: rgb(251, 251, 251); text-decoration-thickness: initial; text-decoration-style: initial; text-decoration-color: initial; display: inline !important; float: none;&quot;&gt;確認裝置名稱是否和規範且裝置存在&lt;/span&gt;" style="rhombus;whiteSpace=wrap;html=1;" parent="1" vertex="1">
          <mxGeometry x="-150" y="1200" width="80" height="80" as="geometry" />
        </mxCell>
        <mxCell id="sNuJCHXWsmG99wDu6apj-19" value="回傳錯誤訊息" style="rounded=1;whiteSpace=wrap;html=1;" parent="1" vertex="1">
          <mxGeometry x="-170" y="1330" width="120" height="60" as="geometry" />
        </mxCell>
        <mxCell id="sNuJCHXWsmG99wDu6apj-29" value="No" style="edgeStyle=orthogonalEdgeStyle;rounded=0;orthogonalLoop=1;jettySize=auto;html=1;entryX=0.5;entryY=0;entryDx=0;entryDy=0;" parent="1" source="sNuJCHXWsmG99wDu6apj-23" target="sNuJCHXWsmG99wDu6apj-9" edge="1">
          <mxGeometry relative="1" as="geometry" />
        </mxCell>
        <mxCell id="sNuJCHXWsmG99wDu6apj-31" value="Yes" style="edgeStyle=orthogonalEdgeStyle;rounded=0;orthogonalLoop=1;jettySize=auto;html=1;exitX=1;exitY=0.5;exitDx=0;exitDy=0;" parent="1" source="sNuJCHXWsmG99wDu6apj-23" target="sNuJCHXWsmG99wDu6apj-30" edge="1">
          <mxGeometry relative="1" as="geometry" />
        </mxCell>
        <mxCell id="sNuJCHXWsmG99wDu6apj-23" value="傳輸參數或資源是否存在" style="rhombus;whiteSpace=wrap;html=1;" parent="1" vertex="1">
          <mxGeometry x="680" y="1440" width="80" height="80" as="geometry" />
        </mxCell>
        <mxCell id="leHano-L6tnwc11Wwh_X-6" style="edgeStyle=orthogonalEdgeStyle;rounded=0;orthogonalLoop=1;jettySize=auto;html=1;entryX=0;entryY=0.5;entryDx=0;entryDy=0;" edge="1" parent="1" source="sNuJCHXWsmG99wDu6apj-27" target="sNuJCHXWsmG99wDu6apj-28">
          <mxGeometry relative="1" as="geometry" />
        </mxCell>
        <mxCell id="sNuJCHXWsmG99wDu6apj-27" value="身份驗證&lt;div&gt;&amp;nbsp;Firebase Auth&lt;/div&gt;" style="rounded=1;whiteSpace=wrap;html=1;" parent="1" vertex="1">
          <mxGeometry x="240" y="1090" width="120" height="60" as="geometry" />
        </mxCell>
        <mxCell id="sNuJCHXWsmG99wDu6apj-28" value="更新資料&lt;br&gt;&lt;div&gt;&amp;nbsp;Update Database&lt;/div&gt;" style="rounded=1;whiteSpace=wrap;html=1;" parent="1" vertex="1">
          <mxGeometry x="490" y="1090" width="120" height="60" as="geometry" />
        </mxCell>
        <mxCell id="sNuJCHXWsmG99wDu6apj-41" style="edgeStyle=orthogonalEdgeStyle;rounded=0;orthogonalLoop=1;jettySize=auto;html=1;entryX=0;entryY=0.5;entryDx=0;entryDy=0;" parent="1" source="sNuJCHXWsmG99wDu6apj-30" target="sNuJCHXWsmG99wDu6apj-38" edge="1">
          <mxGeometry relative="1" as="geometry" />
        </mxCell>
        <mxCell id="sNuJCHXWsmG99wDu6apj-30" value="更新指定存在資料" style="rounded=1;whiteSpace=wrap;html=1;" parent="1" vertex="1">
          <mxGeometry x="830" y="1450" width="120" height="60" as="geometry" />
        </mxCell>
        <mxCell id="sNuJCHXWsmG99wDu6apj-36" value="Yes" style="edgeStyle=orthogonalEdgeStyle;rounded=0;orthogonalLoop=1;jettySize=auto;html=1;entryX=0;entryY=0.5;entryDx=0;entryDy=0;" parent="1" source="sNuJCHXWsmG99wDu6apj-33" target="sNuJCHXWsmG99wDu6apj-23" edge="1">
          <mxGeometry x="-0.7143" relative="1" as="geometry">
            <mxPoint x="550" y="1440" as="targetPoint" />
            <Array as="points">
              <mxPoint x="550" y="1480" />
            </Array>
            <mxPoint as="offset" />
          </mxGeometry>
        </mxCell>
        <mxCell id="sNuJCHXWsmG99wDu6apj-40" value="No" style="edgeStyle=orthogonalEdgeStyle;rounded=0;orthogonalLoop=1;jettySize=auto;html=1;entryX=0.5;entryY=0;entryDx=0;entryDy=0;" parent="1" source="sNuJCHXWsmG99wDu6apj-33" target="sNuJCHXWsmG99wDu6apj-38" edge="1">
          <mxGeometry x="-0.8966" relative="1" as="geometry">
            <mxPoint x="990" y="1400" as="targetPoint" />
            <mxPoint as="offset" />
          </mxGeometry>
        </mxCell>
        <mxCell id="sNuJCHXWsmG99wDu6apj-33" value="是否成功建立Firebase Connection" style="rhombus;whiteSpace=wrap;html=1;" parent="1" vertex="1">
          <mxGeometry x="510" y="1320" width="80" height="80" as="geometry" />
        </mxCell>
        <mxCell id="sNuJCHXWsmG99wDu6apj-44" style="edgeStyle=orthogonalEdgeStyle;rounded=0;orthogonalLoop=1;jettySize=auto;html=1;entryX=0;entryY=0.5;entryDx=0;entryDy=0;" parent="1" source="sNuJCHXWsmG99wDu6apj-38" target="sNuJCHXWsmG99wDu6apj-43" edge="1">
          <mxGeometry relative="1" as="geometry" />
        </mxCell>
        <mxCell id="sNuJCHXWsmG99wDu6apj-38" value="回傳HTTP STATUS" style="rounded=1;whiteSpace=wrap;html=1;" parent="1" vertex="1">
          <mxGeometry x="1020" y="1450" width="120" height="60" as="geometry" />
        </mxCell>
        <mxCell id="sNuJCHXWsmG99wDu6apj-46" style="edgeStyle=orthogonalEdgeStyle;rounded=0;orthogonalLoop=1;jettySize=auto;html=1;entryX=0.5;entryY=0;entryDx=0;entryDy=0;" parent="1" source="sNuJCHXWsmG99wDu6apj-43" target="sNuJCHXWsmG99wDu6apj-45" edge="1">
          <mxGeometry relative="1" as="geometry" />
        </mxCell>
        <mxCell id="sNuJCHXWsmG99wDu6apj-48" style="edgeStyle=orthogonalEdgeStyle;rounded=0;orthogonalLoop=1;jettySize=auto;html=1;entryX=0;entryY=0.5;entryDx=0;entryDy=0;" parent="1" source="sNuJCHXWsmG99wDu6apj-43" target="sNuJCHXWsmG99wDu6apj-47" edge="1">
          <mxGeometry relative="1" as="geometry" />
        </mxCell>
        <mxCell id="sNuJCHXWsmG99wDu6apj-43" value="HTTP Status Code = 200" style="rhombus;whiteSpace=wrap;html=1;" parent="1" vertex="1">
          <mxGeometry x="1200" y="1440" width="80" height="80" as="geometry" />
        </mxCell>
        <mxCell id="sNuJCHXWsmG99wDu6apj-45" value="回傳錯誤訊息&lt;div&gt;(可加根據回傳錯誤重處理)&lt;/div&gt;" style="rounded=1;whiteSpace=wrap;html=1;" parent="1" vertex="1">
          <mxGeometry x="1180" y="1560" width="120" height="60" as="geometry" />
        </mxCell>
        <mxCell id="sNuJCHXWsmG99wDu6apj-47" value="回傳成功更新之資料" style="rounded=1;whiteSpace=wrap;html=1;" parent="1" vertex="1">
          <mxGeometry x="1330" y="1450" width="120" height="60" as="geometry" />
        </mxCell>
        <mxCell id="sNuJCHXWsmG99wDu6apj-52" value="" style="endArrow=none;dashed=1;html=1;rounded=0;entryX=0;entryY=1;entryDx=0;entryDy=0;exitX=0;exitY=0;exitDx=0;exitDy=0;" parent="1" source="sNuJCHXWsmG99wDu6apj-15" edge="1">
          <mxGeometry width="50" height="50" relative="1" as="geometry">
            <mxPoint x="200" y="1060" as="sourcePoint" />
            <mxPoint x="240" y="1020" as="targetPoint" />
          </mxGeometry>
        </mxCell>
        <mxCell id="sNuJCHXWsmG99wDu6apj-53" value="" style="endArrow=none;dashed=1;html=1;rounded=0;entryX=1;entryY=1;entryDx=0;entryDy=0;exitX=1;exitY=0;exitDx=0;exitDy=0;" parent="1" source="sNuJCHXWsmG99wDu6apj-28" edge="1">
          <mxGeometry width="50" height="50" relative="1" as="geometry">
            <mxPoint x="80" y="1100" as="sourcePoint" />
            <mxPoint x="360" y="1020" as="targetPoint" />
          </mxGeometry>
        </mxCell>
        <mxCell id="sNuJCHXWsmG99wDu6apj-57" style="edgeStyle=orthogonalEdgeStyle;rounded=0;orthogonalLoop=1;jettySize=auto;html=1;" parent="1" source="sNuJCHXWsmG99wDu6apj-54" target="sNuJCHXWsmG99wDu6apj-55" edge="1">
          <mxGeometry relative="1" as="geometry" />
        </mxCell>
        <mxCell id="sNuJCHXWsmG99wDu6apj-54" value="取得API初始化Firebase" style="rounded=1;whiteSpace=wrap;html=1;" parent="1" vertex="1">
          <mxGeometry x="670" y="1090" width="120" height="60" as="geometry" />
        </mxCell>
        <mxCell id="sNuJCHXWsmG99wDu6apj-58" style="edgeStyle=orthogonalEdgeStyle;rounded=0;orthogonalLoop=1;jettySize=auto;html=1;entryX=0;entryY=0.5;entryDx=0;entryDy=0;" parent="1" source="sNuJCHXWsmG99wDu6apj-55" target="sNuJCHXWsmG99wDu6apj-56" edge="1">
          <mxGeometry relative="1" as="geometry" />
        </mxCell>
        <mxCell id="sNuJCHXWsmG99wDu6apj-55" value="Access Firebase database" style="rounded=1;whiteSpace=wrap;html=1;" parent="1" vertex="1">
          <mxGeometry x="850" y="1090" width="120" height="60" as="geometry" />
        </mxCell>
        <mxCell id="sNuJCHXWsmG99wDu6apj-56" value="即時監聽所有裝置的資訊" style="rounded=1;whiteSpace=wrap;html=1;" parent="1" vertex="1">
          <mxGeometry x="1030" y="1090" width="120" height="60" as="geometry" />
        </mxCell>
        <mxCell id="sNuJCHXWsmG99wDu6apj-59" value="" style="endArrow=none;dashed=1;html=1;rounded=0;entryX=0;entryY=1;entryDx=0;entryDy=0;exitX=0;exitY=0;exitDx=0;exitDy=0;" parent="1" source="sNuJCHXWsmG99wDu6apj-54" edge="1" target="leHano-L6tnwc11Wwh_X-15">
          <mxGeometry width="50" height="50" relative="1" as="geometry">
            <mxPoint x="630" y="1030" as="sourcePoint" />
            <mxPoint x="180" y="1040" as="targetPoint" />
          </mxGeometry>
        </mxCell>
        <mxCell id="sNuJCHXWsmG99wDu6apj-60" value="" style="endArrow=none;dashed=1;html=1;rounded=0;entryX=1;entryY=1;entryDx=0;entryDy=0;exitX=1;exitY=0;exitDx=0;exitDy=0;" parent="1" source="sNuJCHXWsmG99wDu6apj-56" target="leHano-L6tnwc11Wwh_X-15" edge="1">
          <mxGeometry width="50" height="50" relative="1" as="geometry">
            <mxPoint x="1090" y="1070" as="sourcePoint" />
            <mxPoint x="870" y="1020" as="targetPoint" />
          </mxGeometry>
        </mxCell>
        <mxCell id="leHano-L6tnwc11Wwh_X-3" value="雲端資料更新模組&lt;div&gt;Firebase API&lt;br&gt;&lt;/div&gt;" style="rounded=1;whiteSpace=wrap;html=1;" vertex="1" parent="1">
          <mxGeometry x="240" y="960" width="120" height="60" as="geometry" />
        </mxCell>
        <mxCell id="leHano-L6tnwc11Wwh_X-7" value="" style="endArrow=none;dashed=1;html=1;rounded=0;entryX=0.003;entryY=0.869;entryDx=0;entryDy=0;entryPerimeter=0;" edge="1" parent="1" target="sNuJCHXWsmG99wDu6apj-15">
          <mxGeometry width="50" height="50" relative="1" as="geometry">
            <mxPoint x="-150" y="1170" as="sourcePoint" />
            <mxPoint y="1140" as="targetPoint" />
          </mxGeometry>
        </mxCell>
        <mxCell id="leHano-L6tnwc11Wwh_X-8" value="" style="endArrow=none;dashed=1;html=1;rounded=0;entryX=1.009;entryY=0.926;entryDx=0;entryDy=0;entryPerimeter=0;exitX=1;exitY=1;exitDx=0;exitDy=0;" edge="1" parent="1" source="sNuJCHXWsmG99wDu6apj-19" target="sNuJCHXWsmG99wDu6apj-15">
          <mxGeometry width="50" height="50" relative="1" as="geometry">
            <mxPoint x="-20" y="1178" as="sourcePoint" />
            <mxPoint x="120" y="1150" as="targetPoint" />
          </mxGeometry>
        </mxCell>
        <mxCell id="leHano-L6tnwc11Wwh_X-9" value="" style="endArrow=none;dashed=1;html=1;rounded=0;entryX=0;entryY=1;entryDx=0;entryDy=0;exitX=0;exitY=0;exitDx=0;exitDy=0;" edge="1" parent="1" source="sNuJCHXWsmG99wDu6apj-16" target="sNuJCHXWsmG99wDu6apj-27">
          <mxGeometry width="50" height="50" relative="1" as="geometry">
            <mxPoint x="80" y="1178" as="sourcePoint" />
            <mxPoint x="220" y="1150" as="targetPoint" />
          </mxGeometry>
        </mxCell>
        <mxCell id="leHano-L6tnwc11Wwh_X-10" value="" style="endArrow=none;dashed=1;html=1;rounded=0;entryX=1;entryY=1;entryDx=0;entryDy=0;exitX=1;exitY=0;exitDx=0;exitDy=0;" edge="1" parent="1" source="sNuJCHXWsmG99wDu6apj-7" target="sNuJCHXWsmG99wDu6apj-27">
          <mxGeometry width="50" height="50" relative="1" as="geometry">
            <mxPoint x="500" y="1200" as="sourcePoint" />
            <mxPoint x="320" y="1169" as="targetPoint" />
          </mxGeometry>
        </mxCell>
        <mxCell id="leHano-L6tnwc11Wwh_X-11" value="" style="endArrow=none;dashed=1;html=1;rounded=0;exitX=0;exitY=0;exitDx=0;exitDy=0;" edge="1" parent="1" source="sNuJCHXWsmG99wDu6apj-10">
          <mxGeometry width="50" height="50" relative="1" as="geometry">
            <mxPoint x="320" y="1229" as="sourcePoint" />
            <mxPoint x="489" y="1145" as="targetPoint" />
          </mxGeometry>
        </mxCell>
        <mxCell id="leHano-L6tnwc11Wwh_X-12" value="" style="endArrow=none;dashed=1;html=1;rounded=0;exitX=1;exitY=0;exitDx=0;exitDy=0;entryX=1;entryY=1;entryDx=0;entryDy=0;" edge="1" parent="1" source="sNuJCHXWsmG99wDu6apj-47" target="sNuJCHXWsmG99wDu6apj-28">
          <mxGeometry width="50" height="50" relative="1" as="geometry">
            <mxPoint x="581" y="1215" as="sourcePoint" />
            <mxPoint x="580" y="1150" as="targetPoint" />
          </mxGeometry>
        </mxCell>
        <mxCell id="leHano-L6tnwc11Wwh_X-14" style="edgeStyle=orthogonalEdgeStyle;rounded=0;orthogonalLoop=1;jettySize=auto;html=1;entryX=0.583;entryY=1;entryDx=0;entryDy=0;entryPerimeter=0;" edge="1" parent="1" source="sNuJCHXWsmG99wDu6apj-9" target="sNuJCHXWsmG99wDu6apj-38">
          <mxGeometry relative="1" as="geometry" />
        </mxCell>
        <mxCell id="leHano-L6tnwc11Wwh_X-15" value="雲端資料讀取介面" style="rounded=1;whiteSpace=wrap;html=1;" vertex="1" parent="1">
          <mxGeometry x="850" y="960" width="120" height="60" as="geometry" />
        </mxCell>
        <mxCell id="leHano-L6tnwc11Wwh_X-17" value="" style="endArrow=none;dashed=1;html=1;rounded=0;entryX=0.083;entryY=1;entryDx=0;entryDy=0;exitX=0;exitY=0;exitDx=0;exitDy=0;entryPerimeter=0;" edge="1" parent="1" source="sNuJCHXWsmG99wDu6apj-14" target="sNuJCHXWsmG99wDu6apj-1">
          <mxGeometry width="50" height="50" relative="1" as="geometry">
            <mxPoint y="840" as="sourcePoint" />
            <mxPoint x="240" y="770" as="targetPoint" />
          </mxGeometry>
        </mxCell>
        <mxCell id="leHano-L6tnwc11Wwh_X-18" value="" style="endArrow=none;dashed=1;html=1;rounded=0;entryX=1;entryY=1;entryDx=0;entryDy=0;exitX=1;exitY=0;exitDx=0;exitDy=0;" edge="1" parent="1" source="sNuJCHXWsmG99wDu6apj-8" target="sNuJCHXWsmG99wDu6apj-1">
          <mxGeometry width="50" height="50" relative="1" as="geometry">
            <mxPoint x="10" y="860" as="sourcePoint" />
            <mxPoint x="260" y="780" as="targetPoint" />
          </mxGeometry>
        </mxCell>
      </root>
    </mxGraphModel>
  </diagram>
</mxfile>
